<?xml version="1.0" encoding="UTF-8" standalone="no"?>
<!-- Created with Inkscape (http://www.inkscape.org/) -->

<svg
   xmlns:osb="http://www.openswatchbook.org/uri/2009/osb"
   xmlns:dc="http://purl.org/dc/elements/1.1/"
   xmlns:cc="http://creativecommons.org/ns#"
   xmlns:rdf="http://www.w3.org/1999/02/22-rdf-syntax-ns#"
   xmlns:svg="http://www.w3.org/2000/svg"
   xmlns="http://www.w3.org/2000/svg"
   xmlns:xlink="http://www.w3.org/1999/xlink"
   xmlns:sodipodi="http://sodipodi.sourceforge.net/DTD/sodipodi-0.dtd"
   xmlns:inkscape="http://www.inkscape.org/namespaces/inkscape"
   height="200"
   width="200"
   viewBox="0 0 199.99999 199.99999"
   id="svg2"
   version="1.1"
   inkscape:version="0.91 r13725"
   sodipodi:docname="clausejs.svg">
  <defs
     id="defs8">
    <linearGradient
       inkscape:collect="always"
       id="linearGradient7472">
      <stop
         style="stop-color:#002255;stop-opacity:1"
         offset="0"
         id="stop7474" />
      <stop
         style="stop-color:#003380;stop-opacity:1"
         offset="1"
         id="stop7476" />
    </linearGradient>
    <linearGradient
       inkscape:collect="always"
       id="linearGradient7346"
       osb:paint="gradient">
      <stop
         style="stop-color:#000000;stop-opacity:1;"
         offset="0"
         id="stop7348" />
      <stop
         style="stop-color:#000000;stop-opacity:0;"
         offset="1"
         id="stop7350" />
    </linearGradient>
    <linearGradient
       inkscape:collect="always"
       xlink:href="#linearGradient7472"
       id="linearGradient7478"
       x1="108.9519"
       y1="103.07035"
       x2="95.426842"
       y2="96.683517"
       gradientUnits="userSpaceOnUse" />
  </defs>
  <sodipodi:namedview
     pagecolor="#ffffff"
     bordercolor="#666666"
     borderopacity="1"
     objecttolerance="10"
     gridtolerance="10"
     guidetolerance="10"
     inkscape:pageopacity="0"
     inkscape:pageshadow="2"
     inkscape:window-width="1920"
     inkscape:window-height="1059"
     id="namedview6"
     showgrid="false"
     inkscape:zoom="2.6617248"
     inkscape:cx="47.020278"
     inkscape:cy="35.578392"
     inkscape:window-x="0"
     inkscape:window-y="21"
     inkscape:window-maximized="1"
     inkscape:current-layer="layer1"
     units="px" />
  <metadata
     id="metadata4">
    <rdf:RDF>
      <cc:Work
         rdf:about="">
        <dc:format>image/svg+xml</dc:format>
        <dc:type
           rdf:resource="http://purl.org/dc/dcmitype/StillImage" />
        <dc:title></dc:title>
      </cc:Work>
    </rdf:RDF>
  </metadata>
  <g
     inkscape:groupmode="layer"
     id="layer1"
     inkscape:label="Layer 1">
    <g
       transform="translate(-165.86909,-347.05958)"
       style="font-style:normal;font-weight:normal;font-size:187.5px;line-height:125%;font-family:sans-serif;letter-spacing:0px;word-spacing:0px;fill:#000000;fill-opacity:1;stroke:none;stroke-width:1px;stroke-linecap:butt;stroke-linejoin:miter;stroke-opacity:1"
       id="flowRoot3140">
      <path
         sodipodi:type="inkscape:offset"
         inkscape:radius="0"
         inkscape:original="M 270.39844 363.73828 C 261.36524 363.73828 253.49121 365.0205 246.77734 367.58398 C 240.12451 370.14746 234.99756 373.74805 231.39648 378.38672 C 227.85644 382.96435 226.08594 388.24512 226.08594 394.22656 C 226.08594 402.71045 229.16943 410.125 235.33398 416.47266 C 231.00048 419.70752 227.67285 423.3081 225.35352 427.27539 C 223.09522 431.24268 221.9668 435.79102 221.9668 440.91797 C 221.9668 448.36426 223.79688 454.80225 227.45898 460.23438 C 231.12109 465.66651 235.79052 470.21485 241.4668 473.87695 C 247.2041 477.47803 254.01123 480.89599 261.88477 484.13086 C 269.63623 487.12158 275.55518 489.62451 279.64453 491.63867 C 283.73388 493.65283 287.06152 496.09424 289.625 498.96289 C 292.18847 501.77051 293.46875 505.24805 293.46875 509.39844 C 293.46875 514.22022 291.21191 518.0957 286.69531 521.02539 C 282.17871 523.95508 275.49463 525.41992 266.64453 525.41992 C 261.27344 525.41992 256.14649 524.59717 251.26367 522.94922 C 246.4419 521.36231 243.02393 519.43995 241.00977 517.18164 L 237.53125 495.66602 L 224.5293 495.66602 L 222.69922 527.80078 C 224.16406 527.92285 226.88037 528.65527 230.84766 529.99805 C 236.70703 531.89013 242.32226 533.41651 247.69336 534.57617 C 253.12549 535.79688 259.07715 536.40625 265.54688 536.40625 C 275.92285 536.40625 284.65039 534.88184 291.73047 531.83008 C 298.81055 528.77832 304.02783 524.77979 307.38477 519.83594 C 310.80273 514.95313 312.51172 509.76465 312.51172 504.27148 C 312.51172 496.33691 309.03418 489.25684 302.07617 483.03125 C 310.62109 475.40186 314.89258 466.58203 314.89258 456.57227 C 314.89258 449.55323 312.69531 443.4209 308.30078 438.17188 C 303.90625 432.92285 298.96192 428.77246 293.46875 425.7207 C 287.97559 422.60791 281.44531 419.40332 273.87695 416.10742 L 270.12305 414.45898 C 263.83642 411.7124 259.07666 409.42285 255.8418 407.5918 C 252.60693 405.76074 249.98096 403.47314 247.9668 400.72656 C 245.95264 397.91894 244.94727 394.40869 244.94727 390.19727 C 244.94727 385.31445 247.02148 381.56005 251.17188 378.93555 C 255.32227 376.25 261.39503 374.9082 269.39062 374.9082 C 272.62549 374.9082 275.58594 375.18311 278.27148 375.73242 C 280.95703 376.28174 283.18506 376.9834 284.95508 377.83789 C 286.7251 378.63135 287.88428 379.39453 288.43359 380.12695 L 293.37891 399.99414 L 305.2793 399.99414 L 306.4707 370.42188 C 304.82276 370.1167 302.74659 369.5669 300.24414 368.77344 C 294.99512 367.24756 290.05078 366.02685 285.41211 365.11133 C 280.83448 364.1958 275.83057 363.73828 270.39844 363.73828 z M 244.12305 423.52344 C 246.9917 425.41552 249.95215 427.09375 253.00391 428.55859 C 256.05567 429.9624 259.83887 431.64062 264.35547 433.59375 C 271.74072 436.58447 277.66162 439.36035 282.11719 441.92383 C 286.63379 444.4873 290.17285 447.41699 292.73633 450.71289 C 295.29981 454.00879 296.58203 457.91504 296.58203 462.43164 C 296.58203 467.61963 295.05567 472.10645 292.00391 475.89062 C 289.13525 474.24268 286.23633 472.74707 283.30664 471.4043 C 280.37695 470.06152 276.74561 468.50635 272.41211 466.73633 C 264.35547 463.25732 258.06933 460.26611 253.55273 457.76367 C 249.09717 455.2002 245.49658 452.20899 242.75 448.79102 C 240.00341 445.31202 238.62891 441.16162 238.62891 436.33984 C 238.62891 431.33496 240.46093 427.06348 244.12305 423.52344 z "
         style="font-style:normal;font-variant:normal;font-weight:normal;font-stretch:normal;font-family:Merriweather;-inkscape-font-specification:Merriweather"
         id="path7182"
         d="m 270.39844,363.73828 c -9.0332,0 -16.90723,1.28222 -23.6211,3.8457 -6.65283,2.56348 -11.77978,6.16407 -15.38086,10.80274 -3.54004,4.57763 -5.31054,9.8584 -5.31054,15.83984 0,8.48389 3.08349,15.89844 9.24804,22.2461 -4.3335,3.23486 -7.66113,6.83544 -9.98046,10.80273 -2.2583,3.96729 -3.38672,8.51563 -3.38672,13.64258 0,7.44629 1.83008,13.88428 5.49218,19.31641 3.66211,5.43213 8.33154,9.98047 14.00782,13.64257 5.7373,3.60108 12.54443,7.01904 20.41797,10.25391 7.75146,2.99072 13.67041,5.49365 17.75976,7.50781 4.08935,2.01416 7.41699,4.45557 9.98047,7.32422 2.56347,2.80762 3.84375,6.28516 3.84375,10.43555 0,4.82178 -2.25684,8.69726 -6.77344,11.62695 -4.5166,2.92969 -11.20068,4.39453 -20.05078,4.39453 -5.37109,0 -10.49804,-0.82275 -15.38086,-2.4707 -4.82177,-1.58691 -8.23974,-3.50927 -10.2539,-5.76758 l -3.47852,-21.51562 -13.00195,0 -1.83008,32.13476 c 1.46484,0.12207 4.18115,0.85449 8.14844,2.19727 5.85937,1.89208 11.4746,3.41846 16.8457,4.57812 5.43213,1.22071 11.38379,1.83008 17.85352,1.83008 10.37597,0 19.10351,-1.52441 26.18359,-4.57617 7.08008,-3.05176 12.29736,-7.05029 15.6543,-11.99414 3.41796,-4.88281 5.12695,-10.07129 5.12695,-15.56446 0,-7.93457 -3.47754,-15.01464 -10.43555,-21.24023 8.54492,-7.62939 12.81641,-16.44922 12.81641,-26.45898 0,-7.01904 -2.19727,-13.15137 -6.5918,-18.40039 -4.39453,-5.24903 -9.33886,-9.39942 -14.83203,-12.45118 -5.49316,-3.11279 -12.02344,-6.31738 -19.5918,-9.61328 l -3.7539,-1.64844 c -6.28663,-2.74658 -11.04639,-5.03613 -14.28125,-6.86718 -3.23487,-1.83106 -5.86084,-4.11866 -7.875,-6.86524 -2.01416,-2.80762 -3.01953,-6.31787 -3.01953,-10.52929 0,-4.88282 2.07421,-8.63722 6.22461,-11.26172 4.15039,-2.68555 10.22315,-4.02735 18.21874,-4.02735 3.23487,0 6.19532,0.27491 8.88086,0.82422 2.68555,0.54932 4.91358,1.25098 6.6836,2.10547 1.77002,0.79346 2.9292,1.55664 3.47851,2.28906 l 4.94532,19.86719 11.90039,0 1.1914,-29.57226 c -1.64794,-0.30518 -3.72411,-0.85498 -6.22656,-1.64844 -5.24902,-1.52588 -10.19336,-2.74659 -14.83203,-3.66211 -4.57763,-0.91553 -9.58154,-1.37305 -15.01367,-1.37305 z m -26.27539,59.78516 c 2.86865,1.89208 5.8291,3.57031 8.88086,5.03515 3.05176,1.40381 6.83496,3.08203 11.35156,5.03516 7.38525,2.99072 13.30615,5.7666 17.76172,8.33008 4.5166,2.56347 8.05566,5.49316 10.61914,8.78906 2.56348,3.2959 3.8457,7.20215 3.8457,11.71875 0,5.18799 -1.52636,9.67481 -4.57812,13.45898 -2.86866,-1.64794 -5.76758,-3.14355 -8.69727,-4.48632 -2.92969,-1.34278 -6.56103,-2.89795 -10.89453,-4.66797 -8.05664,-3.47901 -14.34278,-6.47022 -18.85938,-8.97266 -4.45556,-2.56347 -8.05615,-5.55468 -10.80273,-8.97265 -2.74659,-3.479 -4.12109,-7.6294 -4.12109,-12.45118 0,-5.00488 1.83202,-9.27636 5.49414,-12.8164 z" />
    </g>
    <path
       d="m 91.59793,188.88225 c -5.997978,-0.51866 -15.900644,-2.7154 -24.440477,-5.42171 -5.357179,-1.69771 -9.149893,-2.77657 -9.76104,-2.77657 -0.464428,0 -0.490913,-0.15895 -0.343066,-2.05884 0.08812,-1.13236 0.453052,-7.37863 0.810961,-13.8806 0.357909,-6.50196 0.72488,-12.74823 0.81549,-13.88059 l 0.164748,-2.05885 6.343065,0 6.343065,0 0.129936,0.59773 c 0.07147,0.32875 0.853145,5.14047 1.737066,10.69271 l 1.607129,10.09498 1.256641,1.13724 c 2.547065,2.30506 8.838574,4.95752 14.53951,6.12976 9.580272,1.96993 21.640582,0.96366 28.294272,-2.36078 3.56744,-1.78243 6.52172,-4.80072 7.72926,-7.89672 0.44652,-1.14485 0.62327,-2.2551 0.70809,-4.44791 0.20077,-5.19045 -0.96427,-8.07485 -4.84174,-11.98715 -4.10585,-4.14272 -8.53161,-6.56857 -21.44221,-11.7529 -23.338152,-9.37158 -32.801712,-15.63628 -39.77465,-26.33006 -5.678691,-8.7089 -6.898811,-21.645563 -2.864943,-30.376344 1.749622,-3.786827 4.855383,-7.724546 8.582911,-10.88207 1.222976,-1.03596 2.223428,-1.950905 2.223226,-2.033214 -2.01e-4,-0.08231 -0.807135,-1.122652 -1.793187,-2.311872 -4.700493,-5.669009 -6.870487,-11.343014 -7.148614,-18.69188 -0.121361,-3.206711 -0.0579,-4.275036 0.378812,-6.377012 1.770051,-8.519591 7.178041,-15.061082 16.13459,-19.516361 8.040056,-3.999386 15.761775,-5.55375 27.628365,-5.561524 10.12886,-0.0066 14.6269,0.740702 29.82004,4.954523 l 5.91088,1.639384 -0.005,2.003444 c -0.003,1.101893 -0.24021,7.562323 -0.528,14.35651 -0.28779,6.794187 -0.52475,12.502499 -0.52657,12.685139 -0.003,0.255437 -1.3446,0.332072 -5.81535,0.332072 l -5.81204,0 -2.46048,-9.895737 c -1.8131,-7.292094 -2.60796,-10.059092 -3.02106,-10.516607 -1.36296,-1.509522 -7.0272,-3.554499 -11.98386,-4.326569 -2.76975,-0.43143 -10.768881,-0.438993 -13.814178,-0.01306 -8.451105,1.182016 -14.161617,4.458795 -16.3075,9.357494 -1.907209,4.353848 -1.193503,11.360843 1.597205,15.680968 3.251941,5.034133 7.537156,7.684251 24.805273,15.340387 12.32287,5.463568 19.99901,9.356471 24.6867,12.519688 6.24523,4.214242 12.06707,10.377458 14.69254,15.554073 2.6266,5.17885 3.57455,11.32212 2.70821,17.55083 -0.96537,6.94078 -4.7955,14.18878 -10.4381,19.75268 l -1.99896,1.97108 2.01141,2.13814 c 3.68794,3.9203 6.08621,7.89003 7.43576,12.30801 0.65194,2.13426 0.71321,2.71762 0.71932,6.84914 0.006,4.17066 -0.0485,4.69501 -0.71399,6.85379 -3.55084,11.51771 -13.06095,19.52692 -27.50725,23.16602 -7.02425,1.76944 -17.68061,2.4494 -26.47245,1.68914 z m 35.48433,-61.1305 c 1.13722,-1.567 2.49667,-4.51983 3.02706,-6.57502 0.2451,-0.94973 0.51244,-3.04797 0.59408,-4.66276 0.59605,-11.7885 -6.94674,-19.49703 -27.54938,-28.154742 C 91.192994,83.332919 83.693712,79.784964 80.174663,77.487556 l -1.859601,-1.214041 -1.417932,1.53109 c -1.54584,1.669202 -3.213379,4.84716 -3.800403,7.24272 -0.502811,2.051898 -0.430604,7.124099 0.134151,9.423496 1.357635,5.527602 5.358857,10.432149 12.187795,14.939319 3.406599,2.2484 13.427766,7.10072 23.978297,11.61047 4.67557,1.99854 10.29423,4.57308 12.4859,5.72122 2.19167,1.14813 4.07377,2.09908 4.18244,2.11323 0.10866,0.0142 0.5663,-0.48234 1.01695,-1.10331 z"
       id="path7193"
       inkscape:connector-curvature="0"
       style="fill:#000000;fill-opacity:1;stroke:none;stroke-opacity:1" />
    <path
       style="fill:url(#linearGradient7478);fill-opacity:1;fill-rule:evenodd;stroke:#4162e7;stroke-width:0.26565737;stroke-opacity:1"
       d="m 92.979348,189.00961 c -7.382807,-0.59807 -15.722157,-2.40937 -26.666042,-5.79184 -3.05369,-0.94381 -6.372411,-1.91787 -7.374933,-2.16457 -1.002523,-0.24671 -1.859575,-0.47747 -1.904561,-0.51282 -0.103672,-0.0815 1.505589,-29.08599 1.698128,-30.60624 l 0.142993,-1.12905 6.347461,0 6.347461,0 0.151138,0.86339 c 0.08313,0.47486 0.85967,5.28658 1.725653,10.69271 l 1.574514,9.82932 1.275031,1.14858 c 2.501199,2.25316 9.039185,4.97866 14.7343,6.14231 7.216861,1.47458 17.165629,1.19038 23.594409,-0.67401 6.95432,-2.0168 11.7162,-6.3988 12.76906,-11.75039 0.71567,-3.63769 -0.10687,-8.11424 -2.05322,-11.17429 -1.22331,-1.92329 -4.213,-4.82921 -6.82185,-6.63068 -2.50639,-1.73073 -9.0154,-4.88454 -15.44456,-7.48336 -12.484589,-5.04655 -18.696938,-7.9255 -24.837148,-11.51012 -9.634084,-5.62433 -17.069001,-13.85169 -20.027584,-22.16222 -1.32744,-3.72871 -1.839682,-6.964731 -1.860114,-11.750997 -0.01918,-4.492713 0.186031,-6.060051 1.217371,-9.298008 1.641209,-5.152677 5.388971,-10.231676 10.805217,-14.64332 l 1.161488,-0.946054 -1.970519,-2.420925 c -3.204708,-3.937215 -5.23012,-7.900315 -6.408938,-12.540297 -0.484601,-1.907452 -0.574373,-3.021236 -0.578128,-7.172749 -0.0039,-4.33573 0.06697,-5.161725 0.601851,-7.012035 2.255016,-7.800827 7.462619,-13.670545 15.816894,-17.827916 6.394575,-3.182157 12.448341,-4.72938 21.26994,-5.436174 11.30883,-0.906074 19.57563,0.196661 36.22365,4.831992 l 5.91088,1.645773 -0.004,1.3393 c -0.002,0.736615 -0.23953,6.957953 -0.52712,13.825196 -0.28759,6.867243 -0.52479,12.87442 -0.5271,13.349282 l -0.004,0.863387 -5.83423,0 -5.83422,0 -0.26116,-0.996215 c -0.14364,-0.547919 -1.23509,-4.878644 -2.42545,-9.623833 -1.19036,-4.745189 -2.33318,-8.95423 -2.53961,-9.353423 -0.56426,-1.091159 -4.61186,-2.982591 -8.43553,-3.941903 -7.19624,-1.805448 -17.554953,-1.553327 -23.949243,0.5829 -2.73503,0.913729 -5.646746,2.592518 -7.253766,4.182257 -2.660477,2.631866 -3.772418,5.496061 -3.769153,9.708781 0.0053,6.83569 2.932324,11.921743 9.273353,16.11354 2.491728,1.647179 9.149553,4.940621 17.024869,8.421731 20.94965,9.260338 28.28903,13.637067 34.83135,20.771149 4.27719,4.664077 6.54799,8.547889 7.85428,13.433421 0.63299,2.36739 0.70628,3.11389 0.71534,7.28661 0.009,4.16473 -0.0633,4.94267 -0.69455,7.46818 -1.60326,6.41436 -4.97665,12.14966 -10.12353,17.21161 l -1.72896,1.70042 1.97193,2.15462 c 2.8893,3.15697 4.21293,5.0171 5.68772,7.99306 2.03759,4.11164 2.52884,6.32693 2.50369,11.29044 -0.0254,4.99912 -0.47891,6.95578 -2.61724,11.29043 -3.28684,6.66283 -8.18742,11.34648 -15.68633,14.99195 -6.04187,2.93716 -12.65356,4.6347 -20.72127,5.32016 -2.90882,0.24715 -11.770969,0.3095 -14.345502,0.10094 z m 34.150742,-61.3443 c 3.61469,-5.25376 4.65015,-12.69116 2.61796,-18.80403 -1.40386,-4.22284 -5.42775,-8.85867 -10.73428,-12.366702 -3.50082,-2.314314 -10.92388,-6.054302 -17.66622,-8.900831 C 89.564695,82.619172 84.811434,80.357402 80.300403,77.578775 l -2.052651,-1.264359 -1.351199,1.510639 c -5.099178,5.700874 -5.630204,14.953739 -1.279139,22.288355 1.397455,2.3557 5.767965,6.58292 9.126556,8.82735 3.208267,2.14396 12.840373,6.96466 20.45562,10.23767 10.21126,4.38876 14.46465,6.32062 17.53338,7.96352 1.75334,0.93867 3.27181,1.71392 3.37437,1.72276 0.10257,0.009 0.5628,-0.53089 1.02275,-1.1994 z"
       id="path7405"
       inkscape:connector-curvature="0" />
  </g>
</svg>
