<?xml version="1.0" encoding="UTF-8" standalone="no"?>
<!-- Created with Inkscape (http://www.inkscape.org/) -->

<svg
   xmlns:dc="http://purl.org/dc/elements/1.1/"
   xmlns:cc="http://creativecommons.org/ns#"
   xmlns:rdf="http://www.w3.org/1999/02/22-rdf-syntax-ns#"
   xmlns:svg="http://www.w3.org/2000/svg"
   xmlns="http://www.w3.org/2000/svg"
   xmlns:sodipodi="http://sodipodi.sourceforge.net/DTD/sodipodi-0.dtd"
   xmlns:inkscape="http://www.inkscape.org/namespaces/inkscape"
   height="200"
   width="200"
   viewBox="0 0 199.99999 199.99999"
   id="svg2"
   version="1.1"
   inkscape:version="0.91 r13725"
   sodipodi:docname="clausejs.svg"
   enable-background="new">
  <defs
     id="defs8">
    <filter
       style="color-interpolation-filters:sRGB;"
       inkscape:label="Wax Bump"
       id="filter7113">
      <feGaussianBlur
         in="SourceGraphic"
         stdDeviation="2.36"
         result="blur1"
         id="feGaussianBlur7115" />
      <feFlood
         flood-opacity="1"
         flood-color="rgb(255,255,255)"
         result="flood1"
         id="feFlood7117" />
      <feColorMatrix
         in="flood1"
         values="1 0 0 0 0 0 1 0 0 0 0 0 1 0 0 0 0 0 0 0 "
         result="colormatrix1"
         id="feColorMatrix7119" />
      <feColorMatrix
         in="blur1"
         values="0 0 0 0 0 0 0 0 0 0 0 0 0 0 0 -0.05 -0.72 -0.07 0.952381 0 "
         result="colormatrix2"
         id="feColorMatrix7121" />
      <feFlood
         flood-color="rgb(0,81,179)"
         flood-opacity="1"
         result="flood2"
         id="feFlood7123" />
      <feComposite
         in="flood2"
         in2="colormatrix2"
         operator="out"
         result="composite1"
         id="feComposite7125" />
      <feGaussianBlur
         in="composite1"
         stdDeviation="2.81"
         result="blur2"
         id="feGaussianBlur7127" />
      <feSpecularLighting
         in="blur2"
         lighting-color="rgb(0,0,0)"
         specularConstant="1.4"
         surfaceScale="5"
         specularExponent="35"
         result="specular"
         id="feSpecularLighting7129">
        <feDistantLight
           elevation="60"
           azimuth="225"
           id="feDistantLight7131" />
      </feSpecularLighting>
      <feBlend
         in="specular"
         in2="blur2"
         specularConstant="1"
         mode="screen"
         result="blend1"
         id="feBlend7133" />
      <feComposite
         in="blend1"
         in2="blur2"
         k2="0"
         operator="atop"
         k1="0.5"
         k3="0.5"
         k4="0"
         result="composite2"
         id="feComposite7135" />
      <feMerge
         result="merge"
         id="feMerge7137">
        <feMergeNode
           in="colormatrix1"
           id="feMergeNode7139" />
        <feMergeNode
           in="composite2"
           id="feMergeNode7141" />
      </feMerge>
      <feBlend
         in2="composite2"
         mode="screen"
         result="blend2"
         id="feBlend7143" />
      <feComposite
         in="blend2"
         in2="SourceGraphic"
         operator="in"
         result="composite3"
         id="feComposite7145" />
    </filter>
  </defs>
  <sodipodi:namedview
     pagecolor="#ffffff"
     bordercolor="#666666"
     borderopacity="1"
     objecttolerance="10"
     gridtolerance="10"
     guidetolerance="10"
     inkscape:pageopacity="0"
     inkscape:pageshadow="2"
     inkscape:window-width="1920"
     inkscape:window-height="1059"
     id="namedview6"
     showgrid="false"
     inkscape:zoom="0.89702955"
     inkscape:cx="504.4852"
     inkscape:cy="-195.76723"
     inkscape:window-x="0"
     inkscape:window-y="21"
     inkscape:window-maximized="1"
     inkscape:current-layer="layer1"
     units="px" />
  <metadata
     id="metadata4">
    <rdf:RDF>
      <cc:Work
         rdf:about="">
        <dc:format>image/svg+xml</dc:format>
        <dc:type
           rdf:resource="http://purl.org/dc/dcmitype/StillImage" />
        <dc:title></dc:title>
      </cc:Work>
    </rdf:RDF>
  </metadata>
  <g
     inkscape:groupmode="layer"
     id="layer1"
     inkscape:label="Layer 1"
     style="display:inline;opacity:1">
    <g
       transform="translate(-165.86909,-347.05958)"
       style="font-style:normal;font-weight:normal;font-size:187.5px;line-height:125%;font-family:sans-serif;letter-spacing:0px;word-spacing:0px;fill:#000000;fill-opacity:1;stroke:none;stroke-width:1px;stroke-linecap:butt;stroke-linejoin:miter;stroke-opacity:1;filter:url(#filter7113)"
       id="flowRoot3140">
      <path
         sodipodi:type="inkscape:offset"
         inkscape:radius="0"
         inkscape:original="M 270.39844 363.73828 C 261.36524 363.73828 253.49121 365.0205 246.77734 367.58398 C 240.12451 370.14746 234.99756 373.74805 231.39648 378.38672 C 227.85644 382.96435 226.08594 388.24512 226.08594 394.22656 C 226.08594 402.71045 229.16943 410.125 235.33398 416.47266 C 231.00048 419.70752 227.67285 423.3081 225.35352 427.27539 C 223.09522 431.24268 221.9668 435.79102 221.9668 440.91797 C 221.9668 448.36426 223.79688 454.80225 227.45898 460.23438 C 231.12109 465.66651 235.79052 470.21485 241.4668 473.87695 C 247.2041 477.47803 254.01123 480.89599 261.88477 484.13086 C 269.63623 487.12158 275.55518 489.62451 279.64453 491.63867 C 283.73388 493.65283 287.06152 496.09424 289.625 498.96289 C 292.18847 501.77051 293.46875 505.24805 293.46875 509.39844 C 293.46875 514.22022 291.21191 518.0957 286.69531 521.02539 C 282.17871 523.95508 275.49463 525.41992 266.64453 525.41992 C 261.27344 525.41992 256.14649 524.59717 251.26367 522.94922 C 246.4419 521.36231 243.02393 519.43995 241.00977 517.18164 L 237.53125 495.66602 L 224.5293 495.66602 L 222.69922 527.80078 C 224.16406 527.92285 226.88037 528.65527 230.84766 529.99805 C 236.70703 531.89013 242.32226 533.41651 247.69336 534.57617 C 253.12549 535.79688 259.07715 536.40625 265.54688 536.40625 C 275.92285 536.40625 284.65039 534.88184 291.73047 531.83008 C 298.81055 528.77832 304.02783 524.77979 307.38477 519.83594 C 310.80273 514.95313 312.51172 509.76465 312.51172 504.27148 C 312.51172 496.33691 309.03418 489.25684 302.07617 483.03125 C 310.62109 475.40186 314.89258 466.58203 314.89258 456.57227 C 314.89258 449.55323 312.69531 443.4209 308.30078 438.17188 C 303.90625 432.92285 298.96192 428.77246 293.46875 425.7207 C 287.97559 422.60791 281.44531 419.40332 273.87695 416.10742 L 270.12305 414.45898 C 263.83642 411.7124 259.07666 409.42285 255.8418 407.5918 C 252.60693 405.76074 249.98096 403.47314 247.9668 400.72656 C 245.95264 397.91894 244.94727 394.40869 244.94727 390.19727 C 244.94727 385.31445 247.02148 381.56005 251.17188 378.93555 C 255.32227 376.25 261.39503 374.9082 269.39062 374.9082 C 272.62549 374.9082 275.58594 375.18311 278.27148 375.73242 C 280.95703 376.28174 283.18506 376.9834 284.95508 377.83789 C 286.7251 378.63135 287.88428 379.39453 288.43359 380.12695 L 293.37891 399.99414 L 305.2793 399.99414 L 306.4707 370.42188 C 304.82276 370.1167 302.74659 369.5669 300.24414 368.77344 C 294.99512 367.24756 290.05078 366.02685 285.41211 365.11133 C 280.83448 364.1958 275.83057 363.73828 270.39844 363.73828 z M 244.12305 423.52344 C 246.9917 425.41552 249.95215 427.09375 253.00391 428.55859 C 256.05567 429.9624 259.83887 431.64062 264.35547 433.59375 C 271.74072 436.58447 277.66162 439.36035 282.11719 441.92383 C 286.63379 444.4873 290.17285 447.41699 292.73633 450.71289 C 295.29981 454.00879 296.58203 457.91504 296.58203 462.43164 C 296.58203 467.61963 295.05567 472.10645 292.00391 475.89062 C 289.13525 474.24268 286.23633 472.74707 283.30664 471.4043 C 280.37695 470.06152 276.74561 468.50635 272.41211 466.73633 C 264.35547 463.25732 258.06933 460.26611 253.55273 457.76367 C 249.09717 455.2002 245.49658 452.20899 242.75 448.79102 C 240.00341 445.31202 238.62891 441.16162 238.62891 436.33984 C 238.62891 431.33496 240.46093 427.06348 244.12305 423.52344 z "
         style="font-style:normal;font-variant:normal;font-weight:normal;font-stretch:normal;font-family:Merriweather;-inkscape-font-specification:Merriweather"
         id="path7170"
         d="m 270.39844,363.73828 c -9.0332,0 -16.90723,1.28222 -23.6211,3.8457 -6.65283,2.56348 -11.77978,6.16407 -15.38086,10.80274 -3.54004,4.57763 -5.31054,9.8584 -5.31054,15.83984 0,8.48389 3.08349,15.89844 9.24804,22.2461 -4.3335,3.23486 -7.66113,6.83544 -9.98046,10.80273 -2.2583,3.96729 -3.38672,8.51563 -3.38672,13.64258 0,7.44629 1.83008,13.88428 5.49218,19.31641 3.66211,5.43213 8.33154,9.98047 14.00782,13.64257 5.7373,3.60108 12.54443,7.01904 20.41797,10.25391 7.75146,2.99072 13.67041,5.49365 17.75976,7.50781 4.08935,2.01416 7.41699,4.45557 9.98047,7.32422 2.56347,2.80762 3.84375,6.28516 3.84375,10.43555 0,4.82178 -2.25684,8.69726 -6.77344,11.62695 -4.5166,2.92969 -11.20068,4.39453 -20.05078,4.39453 -5.37109,0 -10.49804,-0.82275 -15.38086,-2.4707 -4.82177,-1.58691 -8.23974,-3.50927 -10.2539,-5.76758 l -3.47852,-21.51562 -13.00195,0 -1.83008,32.13476 c 1.46484,0.12207 4.18115,0.85449 8.14844,2.19727 5.85937,1.89208 11.4746,3.41846 16.8457,4.57812 5.43213,1.22071 11.38379,1.83008 17.85352,1.83008 10.37597,0 19.10351,-1.52441 26.18359,-4.57617 7.08008,-3.05176 12.29736,-7.05029 15.6543,-11.99414 3.41796,-4.88281 5.12695,-10.07129 5.12695,-15.56446 0,-7.93457 -3.47754,-15.01464 -10.43555,-21.24023 8.54492,-7.62939 12.81641,-16.44922 12.81641,-26.45898 0,-7.01904 -2.19727,-13.15137 -6.5918,-18.40039 -4.39453,-5.24903 -9.33886,-9.39942 -14.83203,-12.45118 -5.49316,-3.11279 -12.02344,-6.31738 -19.5918,-9.61328 l -3.7539,-1.64844 c -6.28663,-2.74658 -11.04639,-5.03613 -14.28125,-6.86718 -3.23487,-1.83106 -5.86084,-4.11866 -7.875,-6.86524 -2.01416,-2.80762 -3.01953,-6.31787 -3.01953,-10.52929 0,-4.88282 2.07421,-8.63722 6.22461,-11.26172 4.15039,-2.68555 10.22315,-4.02735 18.21874,-4.02735 3.23487,0 6.19532,0.27491 8.88086,0.82422 2.68555,0.54932 4.91358,1.25098 6.6836,2.10547 1.77002,0.79346 2.9292,1.55664 3.47851,2.28906 l 4.94532,19.86719 11.90039,0 1.1914,-29.57226 c -1.64794,-0.30518 -3.72411,-0.85498 -6.22656,-1.64844 -5.24902,-1.52588 -10.19336,-2.74659 -14.83203,-3.66211 -4.57763,-0.91553 -9.58154,-1.37305 -15.01367,-1.37305 z m -26.27539,59.78516 c 2.86865,1.89208 5.8291,3.57031 8.88086,5.03515 3.05176,1.40381 6.83496,3.08203 11.35156,5.03516 7.38525,2.99072 13.30615,5.7666 17.76172,8.33008 4.5166,2.56347 8.05566,5.49316 10.61914,8.78906 2.56348,3.2959 3.8457,7.20215 3.8457,11.71875 0,5.18799 -1.52636,9.67481 -4.57812,13.45898 -2.86866,-1.64794 -5.76758,-3.14355 -8.69727,-4.48632 -2.92969,-1.34278 -6.56103,-2.89795 -10.89453,-4.66797 -8.05664,-3.47901 -14.34278,-6.47022 -18.85938,-8.97266 -4.45556,-2.56347 -8.05615,-5.55468 -10.80273,-8.97265 -2.74659,-3.479 -4.12109,-7.6294 -4.12109,-12.45118 0,-5.00488 1.83202,-9.27636 5.49414,-12.8164 z" />
    </g>
  </g>
</svg>
